<svg width="35" height="40" viewBox="0 0 35 40" fill="none" xmlns="http://www.w3.org/2000/svg">
<path d="M17.9471 0C18.0156 0 18.0841 0 18.1546 0C18.1546 1.93175 18.1546 3.8635 18.1546 5.85378C18.5654 5.85378 18.9762 5.85378 19.3995 5.85378C19.773 5.89516 20.1381 5.93957 20.5085 5.99912C20.6008 6.01224 20.6931 6.02637 20.7886 6.0405C21.4598 6.14243 21.4598 6.14243 21.578 6.25749C21.6382 6.26859 21.6382 6.26859 21.9411 6.32713C23.1424 6.58248 24.267 7.03867 25.3646 7.56955C25.4486 7.60992 25.5326 7.6513 25.6198 7.69268C26.2038 7.98335 26.7454 8.3154 27.2838 8.67975C27.3481 8.72214 27.4124 8.76553 27.4778 8.80893C28.4322 9.44881 29.3793 10.0937 30.0848 11.0011C30.3348 11.2473 30.5879 11.4906 30.841 11.7338C32.3733 13.282 33.5227 15.4378 34.2344 17.4604C34.2593 17.526 34.2842 17.5926 34.3091 17.6603C34.916 19.3286 35.001 21.112 35 22.8661C35 22.9034 35 22.9034 35 23.0932C35 24.4819 34.9243 25.904 34.5518 27.2504C34.5311 27.3271 34.5103 27.4038 34.4885 27.4835C33.8734 29.5687 32.7997 31.5963 31.4334 33.306C31.3597 33.3989 31.2861 33.4907 31.2103 33.5856C30.3566 34.6281 29.4021 35.5173 28.3212 36.3338C28.2309 36.4025 28.1396 36.4711 28.0463 36.5417C27.3128 37.0787 26.5358 37.5268 25.7277 37.9487C25.6613 37.984 25.5949 38.0183 25.5264 38.0546C23.2379 39.2436 20.7367 39.8178 18.1546 39.9672C18.0882 39.9712 18.0882 39.9712 17.7542 39.9924C15.0476 40.0792 12.2704 39.4141 9.85535 38.2514C9.78377 38.2171 9.71323 38.1828 9.63957 38.1475C7.97246 37.334 6.5481 36.2571 5.18703 35.0218C5.10404 34.9471 5.02104 34.8734 4.93494 34.7967C3.49087 33.4564 2.33624 31.7588 1.5447 29.9794C1.43473 29.7332 1.31336 29.492 1.19302 29.2497C0.890094 28.6038 0.703361 27.9357 0.518703 27.2504C0.497955 27.1767 0.47617 27.103 0.454384 27.0273C0.30811 26.5055 0.231342 25.9736 0.151462 25.4387C0.108928 25.1662 0.0549825 24.8957 0 24.6263C0 24.0601 0 23.4939 0 22.9105C1.91713 22.9105 3.83425 22.9105 5.80947 22.9105C5.87794 23.6099 5.94641 24.3093 6.01695 25.03C6.12588 25.465 6.23066 25.8515 6.38627 26.2663C6.42258 26.3673 6.45889 26.4672 6.49623 26.5711C6.96929 27.8398 7.57721 29.063 8.50673 30.0763C8.59594 30.1752 8.68412 30.2731 8.77645 30.3751C10.7942 32.5824 13.5454 33.9913 16.5975 34.2396C19.6651 34.396 22.63 33.52 25.0015 31.5902C25.1052 31.5075 25.2079 31.4247 25.3148 31.3389C27.539 29.495 28.8907 26.6287 29.1511 23.8188C29.2963 21.221 28.8212 18.8189 27.2838 16.653C27.2194 16.5591 27.1541 16.4663 27.0877 16.3704C26.5368 15.5862 25.96 14.9413 25.209 14.3317C25.1322 14.2671 25.0554 14.2025 24.9755 14.1359C22.9899 12.515 20.7077 11.7984 18.1546 11.5057C18.1546 13.3042 18.1546 15.1028 18.1546 16.9558C17.7344 16.7519 17.4212 16.5036 17.0715 16.2049C16.9419 16.0949 16.8112 15.9859 16.6815 15.8759C16.6161 15.8204 16.5497 15.7648 16.4823 15.7073C16.1856 15.457 15.8868 15.2097 15.587 14.9625C15.531 14.916 15.475 14.8706 15.4179 14.8232C15.0071 14.4861 14.589 14.1601 14.1689 13.8351C13.6211 13.4052 13.0879 12.9591 12.5526 12.515C11.8254 11.9135 11.0961 11.317 10.3554 10.7306C10.0255 10.4672 9.70078 10.1977 9.37607 9.92923C8.85529 9.49726 8.32518 9.08144 7.78054 8.67975C7.83449 8.27402 8.02744 8.11556 8.33867 7.85315C8.43203 7.77342 8.52644 7.69369 8.62395 7.61194C8.99949 7.30411 9.37918 7.00032 9.76095 6.69955C10.0846 6.44219 10.4052 6.17978 10.7247 5.91636C10.7807 5.87094 10.8367 5.82451 10.8948 5.77607C11.067 5.63376 11.2393 5.49145 11.4115 5.34915C12.1387 4.74762 12.869 4.15013 13.6097 3.56374C13.9344 3.30436 14.255 3.03993 14.5755 2.7755C16.1026 1.51391 16.1026 1.51391 16.8454 0.984041C17.1732 0.747871 17.4585 0.491516 17.7396 0.201855C17.8081 0.135243 17.8766 0.0686306 17.9471 0Z" fill="#FDFDFD"/>
</svg>
