<svg width="19" height="21" viewBox="0 0 19 21" fill="none" xmlns="http://www.w3.org/2000/svg">
<path d="M0 0C1.14824 0.686985 2.25294 1.40879 3.35529 2.15276C4.59529 2.98643 5.84471 3.80638 7.10353 4.61683C7.71412 5.01045 8.31765 5.40935 8.91177 5.82407C9.49412 6.2293 10.0871 6.61764 10.6882 6.99965C11.2341 7.34683 11.7706 7.70563 12.3047 8.06653C12.8165 8.41161 13.3306 8.75352 13.8459 9.09543C13.9376 9.15663 14.0306 9.21784 14.1247 9.28116C14.7376 9.68744 15.3624 10.0737 16 10.4472C15.8518 10.8461 15.7176 10.882 15.3235 11.1005C14.5976 11.5205 13.9129 11.9806 13.2282 12.4523C13.0118 12.6011 12.7953 12.7509 12.5776 12.8997C12.4765 12.9693 12.3765 13.039 12.2718 13.1108C11.7565 13.4632 11.2318 13.802 10.7059 14.1407C10.3529 14.3686 10 14.5976 9.64706 14.8266C9.46235 14.9469 9.27647 15.0662 9.09176 15.1865C7.42353 16.2671 5.76235 17.3572 4.11765 18.4673C3.40941 18.9454 2.69882 19.4192 1.98588 19.892C1.89176 19.9542 1.79882 20.0165 1.70235 20.0798C0.310588 21 0.310588 21 0 21C0 14.07 0 7.14 0 0Z" fill="#FDFDFD"/>
<path d="M17 0C17.66 0 18.32 0 19 0C19 6.93 19 13.86 19 21C18.34 21 17.68 21 17 21C17 14.07 17 7.14 17 0Z" fill="#F7F7F7"/>
</svg>
