<svg width="24" height="34" viewBox="0 0 24 34" fill="none" xmlns="http://www.w3.org/2000/svg">
<path d="M0 0C0.416502 0.201098 0.775964 0.436402 1.15049 0.699695C1.66063 1.05524 2.17291 1.40043 2.70457 1.72591C2.90583 1.86585 2.90583 1.86585 3.11677 2.06902C3.33848 2.28256 3.56126 2.4422 3.82063 2.61116C4.23175 2.88274 4.63318 3.16366 5.03139 3.45287C5.49955 3.7939 5.97202 4.12457 6.45094 4.4511C6.99552 4.8222 7.52717 5.20677 8.05345 5.60171C8.62816 6.03085 9.21794 6.43823 9.80879 6.84561C10.3469 7.21878 10.8796 7.59713 11.4081 7.98171C12.0129 8.42122 12.6231 8.8514 13.2377 9.27744C13.9211 9.75012 14.598 10.2311 15.2696 10.7183C15.8357 11.1298 16.4061 11.5351 16.9776 11.9404C17.5448 12.3416 18.1109 12.7438 18.6726 13.1522C19.2603 13.5772 19.8533 13.9939 20.4484 14.4085C21.064 14.8377 21.6775 15.2699 22.2845 15.7105C22.8474 16.1189 23.4199 16.5118 24 16.8963C23.8795 17.2446 23.8149 17.2892 23.5146 17.4924C23.4361 17.5463 23.3575 17.6002 23.2768 17.6562C23.1907 17.7132 23.1056 17.7702 23.0185 17.8293C22.8387 17.9516 22.6601 18.0739 22.4814 18.1962C22.3921 18.2563 22.3028 18.3175 22.2113 18.3797C21.8561 18.6223 21.5053 18.87 21.1544 19.1188C21.1222 19.1416 21.1222 19.1416 20.9596 19.2566C20.753 19.4028 20.5474 19.549 20.3408 19.6951C20.2633 19.7501 20.1848 19.805 20.1051 19.862C19.6778 20.1657 19.2506 20.4684 18.8233 20.7721C18.4735 21.0209 18.1227 21.2697 17.7718 21.5174C16.9733 22.0834 16.1758 22.6515 15.3837 23.2257C14.7003 23.7223 14.0083 24.2053 13.3141 24.6863C12.7846 25.0532 12.2594 25.4264 11.7374 25.8048C10.5374 26.6755 9.32879 27.5369 8.10726 28.3817C7.20538 29.0037 6.32072 29.6453 5.44036 30.2952C4.85489 30.7265 4.26511 31.1463 3.6635 31.5547C3.18242 31.8823 2.70995 32.2202 2.23964 32.5612C1.12682 33.3687 1.12682 33.3687 0.712466 33.6631C0.620987 33.7284 0.529507 33.7948 0.434798 33.8621C0.215247 34 0.215247 34 0 34C0 22.78 0 11.56 0 0Z" fill="#FDFDFD"/>
</svg>
