<svg width="17" height="21" viewBox="0 0 17 21" fill="none" xmlns="http://www.w3.org/2000/svg">
<path d="M17 0C17 6.93 17 13.86 17 21C16.7267 20.8488 16.5094 20.7133 16.2665 20.5191C16.1991 20.4645 16.1318 20.4109 16.0615 20.3553C15.9894 20.2976 15.9173 20.2398 15.8433 20.1799C15.7683 20.119 15.6934 20.0592 15.6155 19.9972C14.8934 19.4145 14.1846 18.8139 13.4767 18.2112C12.4842 17.367 11.4679 16.5595 10.4526 15.75C9.79781 15.2271 9.14971 14.6958 8.50445 14.1593C7.77474 13.5524 7.04029 12.9549 6.30489 12.3564C6.09613 12.1873 5.88832 12.0162 5.68051 11.845C5.61693 11.7925 5.55336 11.7401 5.48788 11.6865C5.37022 11.591 5.2535 11.4944 5.13679 11.3977C4.77241 11.0996 4.39759 10.8475 4 10.605C4.34445 10.1871 4.74774 9.87945 5.16241 9.555C5.72701 9.10875 6.28686 8.6583 6.84102 8.1963C7.94175 7.2786 9.05197 6.37455 10.1679 5.4789C11.3379 4.536 12.5022 3.5826 13.6561 2.61555C14.3108 2.0685 14.9731 1.5351 15.6412 1.008C15.9591 0.75705 16.2684 0.504 16.5645 0.22155C16.8102 0 16.8102 0 17 0Z" fill="#FCFCFC"/>
<path d="M0 0C0.99 0 1.98 0 3 0C3 6.93 3 13.86 3 21C2.01 21 1.02 21 0 21C0 14.07 0 7.14 0 0Z" fill="#F7F7F7"/>
</svg>
